# xmcd
#
# Track frame offsets:
# 150
# 25596
# 44982
# 62197
# 77923
# 92221
# 118009
# 139632
# 156140
# 178153
# 197308
# 220089
# 238366
# 260814
# 283464
# 321348
#
# Disc length: 4713 seconds
#
# Revision: 0
# Processed by: cddbd v1.5.2PL0 Copyright (c) Steve Scherf et al.
# Submitted via: Audion 3.0.2 (http://www.panic.com/audion/)
#
DISCID=fb126710
DTITLE=okamura - okamura
DYEAR=1900
DGENRE=
TTITLE0=para
TTITLE1=dounacchatte
TTITLE2=daisuki
TTITLE3=yuujin
TTITLE4=peach time
TTITLE5=tarzan boy
TTITLE6=iziwaru
TTITLE7=(E)na
TTITLE8=punch
TTITLE9=anokobokuga
TTITLE10=stepup
TTITLE11=seinen14sai
TTITLE12=dooshitara
TTITLE13=charmpoint
TTITLE14=sex
TTITLE15=mayonaka
EXTD=
EXTT0=
EXTT1=
EXTT2=
EXTT3=
EXTT4=
EXTT5=
EXTT6=
EXTT7=
EXTT8=
EXTT9=
EXTT10=
EXTT11=
EXTT12=
EXTT13=
EXTT14=
EXTT15=
PLAYORDER=
